<svg xmlns="http://www.w3.org/2000/svg" width="480" height="320" viewBox="0 0 480 320">
  <rect width="480" height="320" fill="#0f0e0b"/>
  <rect x="160" y="20" width="160" height="14" rx="2" fill="#faf8f3" opacity="0.8"/>
  <!-- FAQ accordion items -->
  <rect x="40" y="52" width="400" height="40" rx="3" fill="#1a1814"/>
  <rect x="56" y="68" width="200" height="10" rx="2" fill="#faf8f3" opacity="0.7"/>
  <text x="412" y="77" font-family="sans-serif" font-size="18" fill="#4a5e3a">+</text>

  <!-- Expanded item -->
  <rect x="40" y="100" width="400" height="80" rx="3" fill="#1a1814"/>
  <rect x="56" y="112" width="200" height="10" rx="2" fill="#faf8f3" opacity="0.7"/>
  <text x="412" y="121" font-family="sans-serif" font-size="18" fill="#4a5e3a">−</text>
  <rect x="56" y="130" width="320" height="7" rx="2" fill="#c4bfb0" opacity="0.4"/>
  <rect x="56" y="143" width="280" height="7" rx="2" fill="#c4bfb0" opacity="0.3"/>
  <rect x="56" y="156" width="200" height="7" rx="2" fill="#c4bfb0" opacity="0.2"/>

  <rect x="40" y="188" width="400" height="40" rx="3" fill="#1a1814"/>
  <rect x="56" y="204" width="180" height="10" rx="2" fill="#faf8f3" opacity="0.7"/>
  <text x="412" y="213" font-family="sans-serif" font-size="18" fill="#4a5e3a">+</text>

  <rect x="40" y="236" width="400" height="40" rx="3" fill="#1a1814"/>
  <rect x="56" y="252" width="220" height="10" rx="2" fill="#faf8f3" opacity="0.7"/>
  <text x="412" y="261" font-family="sans-serif" font-size="18" fill="#4a5e3a">+</text>
  <text x="24" y="308" font-family="sans-serif" font-size="11" fill="#4a5e3a" opacity="0.8">❓ FAQ</text>
</svg>
