<svg xmlns="http://www.w3.org/2000/svg" width="480" height="320" viewBox="0 0 480 320">
  <rect width="480" height="320" fill="#0f0e0b"/>
  <!-- Heading -->
  <rect x="160" y="32" width="160" height="14" rx="2" fill="#faf8f3" opacity="0.8"/>
  <!-- Product cards -->
  <rect x="32" y="60" width="118" height="200" rx="3" fill="#1a1814"/>
  <rect x="32" y="60" width="118" height="110" rx="3" fill="#242019"/>
  <rect x="42" y="180" width="80" height="10" rx="2" fill="#c4bfb0" opacity="0.7"/>
  <rect x="42" y="196" width="60" height="8" rx="2" fill="#4a5e3a" opacity="0.6"/>
  <rect x="42" y="214" width="50" height="20" rx="2" fill="#8b6914" opacity="0.6"/>

  <rect x="181" y="60" width="118" height="200" rx="3" fill="#1a1814"/>
  <rect x="181" y="60" width="118" height="110" rx="3" fill="#242019"/>
  <rect x="191" y="180" width="80" height="10" rx="2" fill="#c4bfb0" opacity="0.7"/>
  <rect x="191" y="196" width="60" height="8" rx="2" fill="#4a5e3a" opacity="0.6"/>
  <rect x="191" y="214" width="50" height="20" rx="2" fill="#8b6914" opacity="0.6"/>

  <rect x="330" y="60" width="118" height="200" rx="3" fill="#1a1814"/>
  <rect x="330" y="60" width="118" height="110" rx="3" fill="#242019"/>
  <rect x="340" y="180" width="80" height="10" rx="2" fill="#c4bfb0" opacity="0.7"/>
  <rect x="340" y="196" width="60" height="8" rx="2" fill="#4a5e3a" opacity="0.6"/>
  <rect x="340" y="214" width="50" height="20" rx="2" fill="#8b6914" opacity="0.6"/>
  <text x="24" y="308" font-family="sans-serif" font-size="11" fill="#4a5e3a" opacity="0.8">🛒 Produse Recomandate</text>
</svg>
