<svg xmlns="http://www.w3.org/2000/svg" width="480" height="320" viewBox="0 0 480 320">
  <rect width="480" height="320" fill="#0f0e0b"/>
  <rect x="160" y="20" width="160" height="14" rx="2" fill="#faf8f3" opacity="0.8"/>
  <!-- Feature items - 2 rows x 3 cols -->
  <!-- Row 1 -->
  <circle cx="84" cy="90" r="22" fill="#1a1814" stroke="#4a5e3a" stroke-width="1.5"/>
  <rect x="56" y="118" width="56" height="8" rx="2" fill="#faf8f3" opacity="0.7"/>
  <rect x="60" y="132" width="48" height="6" rx="2" fill="#c4bfb0" opacity="0.5"/>

  <circle cx="240" cy="90" r="22" fill="#1a1814" stroke="#4a5e3a" stroke-width="1.5"/>
  <rect x="212" y="118" width="56" height="8" rx="2" fill="#faf8f3" opacity="0.7"/>
  <rect x="216" y="132" width="48" height="6" rx="2" fill="#c4bfb0" opacity="0.5"/>

  <circle cx="396" cy="90" r="22" fill="#1a1814" stroke="#4a5e3a" stroke-width="1.5"/>
  <rect x="368" y="118" width="56" height="8" rx="2" fill="#faf8f3" opacity="0.7"/>
  <rect x="372" y="132" width="48" height="6" rx="2" fill="#c4bfb0" opacity="0.5"/>

  <!-- Row 2 -->
  <circle cx="84" cy="210" r="22" fill="#1a1814" stroke="#4a5e3a" stroke-width="1.5"/>
  <rect x="56" y="238" width="56" height="8" rx="2" fill="#faf8f3" opacity="0.7"/>

  <circle cx="240" cy="210" r="22" fill="#1a1814" stroke="#4a5e3a" stroke-width="1.5"/>
  <rect x="212" y="238" width="56" height="8" rx="2" fill="#faf8f3" opacity="0.7"/>

  <circle cx="396" cy="210" r="22" fill="#1a1814" stroke="#4a5e3a" stroke-width="1.5"/>
  <rect x="368" y="238" width="56" height="8" rx="2" fill="#faf8f3" opacity="0.7"/>
  <text x="24" y="308" font-family="sans-serif" font-size="11" fill="#4a5e3a" opacity="0.8">✨ Caracteristici</text>
</svg>
