<svg xmlns="http://www.w3.org/2000/svg" width="480" height="320" viewBox="0 0 480 320">
  <rect width="480" height="320" fill="#0f0e0b"/>
  <!-- Heading -->
  <rect x="180" y="60" width="120" height="10" rx="2" fill="#c4bfb0" opacity="0.4"/>
  <!-- Logo placeholders -->
  <rect x="36" y="110" width="80" height="50" rx="3" fill="#1a1814"/>
  <rect x="52" y="127" width="48" height="16" rx="2" fill="#c4bfb0" opacity="0.3"/>

  <rect x="140" y="110" width="80" height="50" rx="3" fill="#1a1814"/>
  <rect x="156" y="127" width="48" height="16" rx="2" fill="#c4bfb0" opacity="0.3"/>

  <rect x="244" y="110" width="80" height="50" rx="3" fill="#1a1814"/>
  <rect x="260" y="127" width="48" height="16" rx="2" fill="#c4bfb0" opacity="0.3"/>

  <rect x="348" y="110" width="80" height="50" rx="3" fill="#1a1814"/>
  <rect x="364" y="127" width="48" height="16" rx="2" fill="#c4bfb0" opacity="0.3"/>

  <!-- Second row (marquee hint) -->
  <rect x="36" y="178" width="80" height="50" rx="3" fill="#1a1814" opacity="0.5"/>
  <rect x="52" y="195" width="48" height="16" rx="2" fill="#c4bfb0" opacity="0.15"/>
  <rect x="140" y="178" width="80" height="50" rx="3" fill="#1a1814" opacity="0.5"/>
  <rect x="156" y="195" width="48" height="16" rx="2" fill="#c4bfb0" opacity="0.15"/>
  <rect x="244" y="178" width="80" height="50" rx="3" fill="#1a1814" opacity="0.5"/>
  <rect x="348" y="178" width="80" height="50" rx="3" fill="#1a1814" opacity="0.5"/>
  <text x="24" y="308" font-family="sans-serif" font-size="11" fill="#4a5e3a" opacity="0.8">🏢 Logo-uri Parteneri</text>
</svg>
