<svg xmlns="http://www.w3.org/2000/svg" width="480" height="320" viewBox="0 0 480 320">
  <rect width="480" height="320" fill="#0f0e0b"/>
  <rect x="160" y="24" width="160" height="14" rx="2" fill="#faf8f3" opacity="0.8"/>
  <!-- Offer cards with badges -->
  <rect x="32" y="52" width="130" height="210" rx="3" fill="#1a1814"/>
  <rect x="32" y="52" width="130" height="120" rx="3" fill="#242019"/>
  <rect x="38" y="58" width="44" height="18" rx="2" fill="#8b6914"/>
  <rect x="42" y="182" width="90" height="10" rx="2" fill="#c4bfb0" opacity="0.7"/>
  <rect x="42" y="198" width="70" height="8" rx="2" fill="#c4bfb0" opacity="0.4"/>
  <rect x="42" y="212" width="70" height="8" rx="2" fill="#c4bfb0" opacity="0.3"/>
  <rect x="42" y="234" width="50" height="10" rx="2" fill="#4a5e3a" opacity="0.7"/>

  <rect x="175" y="52" width="130" height="210" rx="3" fill="#1a1814"/>
  <rect x="175" y="52" width="130" height="120" rx="3" fill="#242019"/>
  <rect x="181" y="58" width="44" height="18" rx="2" fill="#8b6914"/>
  <rect x="185" y="182" width="90" height="10" rx="2" fill="#c4bfb0" opacity="0.7"/>
  <rect x="185" y="198" width="70" height="8" rx="2" fill="#c4bfb0" opacity="0.4"/>
  <rect x="185" y="234" width="50" height="10" rx="2" fill="#4a5e3a" opacity="0.7"/>

  <rect x="318" y="52" width="130" height="210" rx="3" fill="#1a1814"/>
  <rect x="318" y="52" width="130" height="120" rx="3" fill="#242019"/>
  <rect x="324" y="58" width="44" height="18" rx="2" fill="#8b6914"/>
  <rect x="328" y="182" width="90" height="10" rx="2" fill="#c4bfb0" opacity="0.7"/>
  <rect x="328" y="198" width="70" height="8" rx="2" fill="#c4bfb0" opacity="0.4"/>
  <rect x="328" y="234" width="50" height="10" rx="2" fill="#4a5e3a" opacity="0.7"/>
  <text x="24" y="308" font-family="sans-serif" font-size="11" fill="#4a5e3a" opacity="0.8">🏷️ Oferte</text>
</svg>
