<svg xmlns="http://www.w3.org/2000/svg" width="480" height="320" viewBox="0 0 480 320">
  <rect width="480" height="320" fill="#0f0e0b"/>
  <!-- Toolbar -->
  <rect x="40" y="24" width="400" height="28" rx="3" fill="#1a1814"/>
  <rect x="52" y="34" width="16" height="8" rx="1" fill="#4a5e3a" opacity="0.7"/>
  <rect x="74" y="34" width="12" height="8" rx="1" fill="#c4bfb0" opacity="0.5"/>
  <rect x="92" y="34" width="12" height="8" rx="1" fill="#c4bfb0" opacity="0.5"/>
  <rect x="110" y="34" width="20" height="8" rx="1" fill="#c4bfb0" opacity="0.4"/>
  <!-- Content -->
  <rect x="40" y="68" width="240" height="16" rx="2" fill="#faf8f3" opacity="0.85"/>
  <rect x="40" y="96" width="380" height="8" rx="2" fill="#c4bfb0" opacity="0.5"/>
  <rect x="40" y="110" width="360" height="8" rx="2" fill="#c4bfb0" opacity="0.4"/>
  <rect x="40" y="124" width="320" height="8" rx="2" fill="#c4bfb0" opacity="0.35"/>
  <rect x="40" y="150" width="160" height="14" rx="2" fill="#faf8f3" opacity="0.7"/>
  <rect x="40" y="174" width="380" height="8" rx="2" fill="#c4bfb0" opacity="0.45"/>
  <rect x="40" y="188" width="340" height="8" rx="2" fill="#c4bfb0" opacity="0.35"/>
  <!-- List -->
  <circle cx="52" cy="220" r="4" fill="#4a5e3a" opacity="0.7"/>
  <rect x="64" y="216" width="200" height="8" rx="2" fill="#c4bfb0" opacity="0.4"/>
  <circle cx="52" cy="238" r="4" fill="#4a5e3a" opacity="0.7"/>
  <rect x="64" y="234" width="160" height="8" rx="2" fill="#c4bfb0" opacity="0.35"/>
  <text x="24" y="308" font-family="sans-serif" font-size="11" fill="#4a5e3a" opacity="0.8">📝 Text Rich</text>
</svg>
