<svg xmlns="http://www.w3.org/2000/svg" width="480" height="320" viewBox="0 0 480 320">
  <rect width="480" height="320" fill="#0f0e0b"/>
  <!-- Content above -->
  <rect x="40" y="40" width="400" height="60" rx="3" fill="#1a1814" opacity="0.6"/>
  <rect x="60" y="56" width="200" height="10" rx="2" fill="#faf8f3" opacity="0.4"/>
  <rect x="60" y="72" width="280" height="8" rx="2" fill="#c4bfb0" opacity="0.25"/>
  <!-- Spacer with divider -->
  <line x1="60" y1="160" x2="420" y2="160" stroke="#2e2a22" stroke-width="1.5"/>
  <!-- Arrows indicating space -->
  <line x1="240" y1="118" x2="240" y2="148" stroke="#4a5e3a" stroke-width="1.5" opacity="0.5"/>
  <polyline points="234,128 240,118 246,128" fill="none" stroke="#4a5e3a" stroke-width="1.5" opacity="0.5"/>
  <line x1="240" y1="172" x2="240" y2="202" stroke="#4a5e3a" stroke-width="1.5" opacity="0.5"/>
  <polyline points="234,192 240,202 246,192" fill="none" stroke="#4a5e3a" stroke-width="1.5" opacity="0.5"/>
  <!-- Content below -->
  <rect x="40" y="220" width="400" height="60" rx="3" fill="#1a1814" opacity="0.6"/>
  <rect x="60" y="236" width="160" height="10" rx="2" fill="#faf8f3" opacity="0.4"/>
  <rect x="60" y="252" width="260" height="8" rx="2" fill="#c4bfb0" opacity="0.25"/>
  <text x="24" y="308" font-family="sans-serif" font-size="11" fill="#4a5e3a" opacity="0.8">↕️ Spațiu / Separator</text>
</svg>
