<svg xmlns="http://www.w3.org/2000/svg" width="480" height="320" viewBox="0 0 480 320">
  <rect width="480" height="320" fill="#0f0e0b"/>
  <rect x="160" y="20" width="160" height="14" rx="2" fill="#faf8f3" opacity="0.8"/>
  <!-- Steps horizontal with connectors -->
  <!-- Step 1 -->
  <circle cx="80" cy="140" r="28" fill="#1a1814" stroke="#4a5e3a" stroke-width="2"/>
  <text x="72" y="148" font-family="serif" font-size="22" fill="#4a5e3a" font-weight="bold">1</text>
  <rect x="44" y="180" width="72" height="10" rx="2" fill="#faf8f3" opacity="0.7"/>
  <rect x="50" y="196" width="60" height="7" rx="2" fill="#c4bfb0" opacity="0.4"/>
  <!-- Connector -->
  <line x1="108" y1="140" x2="172" y2="140" stroke="#4a5e3a" stroke-width="1" stroke-dasharray="5,4" opacity="0.5"/>
  <!-- Step 2 -->
  <circle cx="200" cy="140" r="28" fill="#1a1814" stroke="#4a5e3a" stroke-width="2"/>
  <text x="192" y="148" font-family="serif" font-size="22" fill="#4a5e3a" font-weight="bold">2</text>
  <rect x="164" y="180" width="72" height="10" rx="2" fill="#faf8f3" opacity="0.7"/>
  <rect x="170" y="196" width="60" height="7" rx="2" fill="#c4bfb0" opacity="0.4"/>
  <!-- Connector -->
  <line x1="228" y1="140" x2="292" y2="140" stroke="#4a5e3a" stroke-width="1" stroke-dasharray="5,4" opacity="0.5"/>
  <!-- Step 3 -->
  <circle cx="320" cy="140" r="28" fill="#1a1814" stroke="#4a5e3a" stroke-width="2"/>
  <text x="312" y="148" font-family="serif" font-size="22" fill="#4a5e3a" font-weight="bold">3</text>
  <rect x="284" y="180" width="72" height="10" rx="2" fill="#faf8f3" opacity="0.7"/>
  <rect x="290" y="196" width="60" height="7" rx="2" fill="#c4bfb0" opacity="0.4"/>
  <!-- Connector -->
  <line x1="348" y1="140" x2="372" y2="140" stroke="#4a5e3a" stroke-width="1" stroke-dasharray="5,4" opacity="0.5"/>
  <!-- Step 4 -->
  <circle cx="400" cy="140" r="28" fill="#4a5e3a" stroke="#4a5e3a" stroke-width="2"/>
  <text x="392" y="148" font-family="serif" font-size="22" fill="#fff" font-weight="bold">4</text>
  <rect x="364" y="180" width="72" height="10" rx="2" fill="#faf8f3" opacity="0.7"/>
  <text x="24" y="308" font-family="sans-serif" font-size="11" fill="#4a5e3a" opacity="0.8">🔢 Pași</text>
</svg>
