<svg xmlns="http://www.w3.org/2000/svg" width="480" height="320" viewBox="0 0 480 320">
  <rect width="480" height="320" fill="#0f0e0b"/>
  <rect x="160" y="20" width="160" height="14" rx="2" fill="#faf8f3" opacity="0.8"/>
  <!-- Stars row -->
  <rect x="192" y="48" width="96" height="10" rx="2" fill="#8b6914" opacity="0.8"/>
  <!-- Testimonial cards -->
  <rect x="24" y="72" width="200" height="180" rx="4" fill="#1a1814"/>
  <text x="36" y="105" font-family="serif" font-size="40" fill="#4a5e3a" opacity="0.5">"</text>
  <rect x="36" y="116" width="160" height="8" rx="2" fill="#c4bfb0" opacity="0.6"/>
  <rect x="36" y="130" width="140" height="8" rx="2" fill="#c4bfb0" opacity="0.5"/>
  <rect x="36" y="144" width="120" height="8" rx="2" fill="#c4bfb0" opacity="0.4"/>
  <circle cx="48" cy="222" r="16" fill="#242019"/>
  <rect x="72" y="214" width="80" height="8" rx="2" fill="#faf8f3" opacity="0.7"/>
  <rect x="72" y="228" width="60" height="6" rx="2" fill="#c4bfb0" opacity="0.4"/>

  <rect x="256" y="72" width="200" height="180" rx="4" fill="#1a1814"/>
  <text x="268" y="105" font-family="serif" font-size="40" fill="#4a5e3a" opacity="0.5">"</text>
  <rect x="268" y="116" width="160" height="8" rx="2" fill="#c4bfb0" opacity="0.6"/>
  <rect x="268" y="130" width="140" height="8" rx="2" fill="#c4bfb0" opacity="0.5"/>
  <rect x="268" y="144" width="100" height="8" rx="2" fill="#c4bfb0" opacity="0.4"/>
  <circle cx="280" cy="222" r="16" fill="#242019"/>
  <rect x="304" y="214" width="80" height="8" rx="2" fill="#faf8f3" opacity="0.7"/>
  <rect x="304" y="228" width="60" height="6" rx="2" fill="#c4bfb0" opacity="0.4"/>
  <text x="24" y="308" font-family="sans-serif" font-size="11" fill="#4a5e3a" opacity="0.8">⭐ Testimoniale</text>
</svg>
